<svg viewBox="0 0 30 30" xmlns="http://www.w3.org/2000/svg"><g><path d="M10.45.987a14.831 14.831 0 0 0 1.016 28.336c2.484.64 5.087.669 7.584.082a13.4 13.4 0 0 0 6.07-3.155 13.46 13.46 0 0 0 3.75-6.154c.726-2.56.855-5.253.378-7.87h-13.95v5.786h8.079a6.97 6.97 0 0 1-2.968 4.575 8.5 8.5 0 0 1-3.264 1.289 9.7 9.7 0 0 1-3.54 0 8.7 8.7 0 0 1-3.293-1.437 9.2 9.2 0 0 1-3.398-4.551 8.98 8.98 0 0 1 0-5.773 9.2 9.2 0 0 1 2.152-3.494 8.71 8.71 0 0 1 8.777-2.293 8.04 8.04 0 0 1 3.197 1.875q1.366-1.36 2.728-2.725c.469-.49.98-.957 1.441-1.458a14.3 14.3 0 0 0-4.771-2.944 15 15 0 0 0-9.987-.09"/></g></svg>