<svg viewBox="0 0 33 33" xmlns="http://www.w3.org/2000/svg"><path d="M17.913 2.75c1.547.004 2.332.012 3.01.032l.267.01c.308.01.612.024.979.04 1.463.07 2.461.3 3.337.64.908.35 1.672.822 2.437 1.585a6.7 6.7 0 0 1 1.585 2.437c.34.876.57 1.874.64 3.338.016.366.03.67.04.98l.009.266c.02.677.029 1.462.031 3.008l.002 1.026v1.802q.005 1.503-.032 3.008l-.008.267c-.011.31-.025.613-.041.979-.07 1.464-.303 2.461-.641 3.338a6.7 6.7 0 0 1-1.585 2.437 6.7 6.7 0 0 1-2.437 1.585c-.876.34-1.874.57-3.337.64l-.98.04-.266.009c-.678.02-1.463.029-3.01.032l-1.025.001h-1.8q-1.506.005-3.01-.032l-.267-.008a84 84 0 0 1-.979-.043c-1.463-.068-2.461-.3-3.338-.639a6.7 6.7 0 0 1-2.436-1.585 6.7 6.7 0 0 1-1.586-2.437c-.34-.876-.57-1.874-.64-3.338l-.04-.98-.008-.266a109 109 0 0 1-.034-3.009v-2.827q-.006-1.503.03-3.008l.01-.267c.01-.31.024-.613.04-.979.07-1.464.3-2.461.64-3.338a6.7 6.7 0 0 1 1.59-2.437 6.7 6.7 0 0 1 2.434-1.585c.877-.34 1.874-.57 3.338-.64.366-.016.671-.03.98-.04l.266-.009q1.503-.036 3.008-.032zM16.5 9.625a6.875 6.875 0 1 0 0 13.75 6.875 6.875 0 0 0 0-13.75m0 2.75a4.125 4.125 0 1 1-.002 8.25 4.125 4.125 0 0 1 .003-8.25m7.219-4.812a1.719 1.719 0 1 0 0 3.437 1.719 1.719 0 0 0 0-3.437"/></svg>