<svg viewBox="0 0 33 33" xmlns="http://www.w3.org/2000/svg"><path fill-rule="evenodd" clip-rule="evenodd" d="M22.93 3.614a30.1 30.1 0 0 0-13.138 0l-.467.103A6.74 6.74 0 0 0 4.26 8.64a26.8 26.8 0 0 0 0 13.168 6.74 6.74 0 0 0 4.735 4.84l.64 3.817a.688.688 0 0 0 1.136.399l3.755-3.36c2.819.17 5.647-.055 8.404-.67l.467-.102a6.74 6.74 0 0 0 5.066-4.923 26.8 26.8 0 0 0 0-13.168 6.74 6.74 0 0 0-5.067-4.923zM10.952 8.528a1.13 1.13 0 0 0-.738.146h-.02c-.515.302-.98.683-1.376 1.132-.33.38-.509.765-.555 1.137-.028.22-.009.442.056.653l.025.014a16.3 16.3 0 0 0 1.446 3.126 18.4 18.4 0 0 0 2.792 3.816l.032.047.053.038.031.037.039.033a18.7 18.7 0 0 0 3.825 2.805c1.588.865 2.552 1.274 3.131 1.444v.008c.17.053.323.076.479.076a2.2 2.2 0 0 0 1.325-.57 5.4 5.4 0 0 0 1.12-1.38v-.01c.276-.522.182-1.014-.217-1.348a16.5 16.5 0 0 0-2.586-1.857c-.616-.334-1.242-.132-1.495.207l-.54.682c-.278.338-.781.291-.781.291l-.014.008c-3.755-.958-4.757-4.76-4.757-4.76s-.047-.517.3-.78l.677-.545c.325-.264.55-.889.202-1.505a16.5 16.5 0 0 0-1.852-2.585 1.03 1.03 0 0 0-.605-.361m6.347-1.652a.687.687 0 0 0 0 1.375c1.74 0 3.184.568 4.326 1.657a6.1 6.1 0 0 1 1.345 2.074c.301.774.439 1.6.403 2.428a.687.687 0 0 0 1.153.535.7.7 0 0 0 .222-.477 7.42 7.42 0 0 0-2.152-5.533l-.014-.014c-1.418-1.354-3.212-2.045-5.283-2.045m-.046 2.26a.688.688 0 1 0 0 1.376h.023c1.254.09 2.167.507 2.806 1.193.656.707.996 1.586.97 2.672a.687.687 0 1 0 1.375.032c.033-1.426-.427-2.657-1.337-3.639v-.002c-.93-.999-2.208-1.527-3.745-1.63l-.024-.002zm-.026 2.304a.686.686 0 0 0-.707.92.69.69 0 0 0 .635.452c.575.03.942.204 1.173.436.232.234.406.61.437 1.196a.687.687 0 1 0 1.372-.072c-.044-.825-.302-1.554-.832-2.09-.532-.537-1.256-.798-2.078-.842"/></svg>