<svg width="221" height="41" viewBox="0 0 221 41" fill="none" xmlns="http://www.w3.org/2000/svg">
<path d="M86.1035 2.15815L69.3325 41.0001H75.2418L88.7485 9.12553L102.311 41.0001H108.333L91.5627 2.15815H86.1035Z" fill="#F7C334"/>
<path d="M40.5546 1.51546C38.0345 2.52587 35.8549 3.93093 34.0152 5.73075C32.1756 7.53161 30.7415 9.68064 29.7113 12.1788C28.681 14.6767 28.166 17.4325 28.166 20.445C28.166 23.4575 28.681 26.2222 29.7113 28.7388C30.7415 31.2555 32.1756 33.423 34.0152 35.2413C35.8549 37.0602 38.0345 38.4748 40.5546 39.4846C43.0749 40.4948 45.8063 41.0001 48.7494 41.0001C51.6923 41.0001 54.4236 40.4948 56.9439 39.4846C59.4638 38.4748 61.6436 37.0602 63.4834 35.2413C65.3221 33.423 66.7579 31.2555 67.7877 28.7388C68.8173 26.2222 69.3324 23.4575 69.3324 20.445C69.3324 17.4325 68.8173 14.6767 67.7877 12.1788C66.7579 9.68064 65.3221 7.53161 63.4834 5.73075C61.6436 3.93093 59.4638 2.52587 56.9439 1.51546C54.4236 0.505093 51.6923 0.00012207 48.7494 0.00012207C45.8063 0.00012207 43.0749 0.505093 40.5546 1.51546ZM42.5685 34.966C40.7295 34.1393 39.1659 33.0094 37.878 31.5767C36.5906 30.1441 35.5972 28.4725 34.8982 26.5621C34.199 24.651 33.8498 22.6123 33.8498 20.445C33.8498 18.3143 34.199 16.3029 34.8982 14.4107C35.5972 12.5188 36.5906 10.8561 37.878 9.42339C39.1659 7.98971 40.7295 6.85176 42.5685 6.00614C44.4082 5.16189 46.468 4.73895 48.7494 4.73895C51.0303 4.73895 53.0905 5.16189 54.9299 6.00614C56.7698 6.85176 58.332 7.98971 59.6202 9.42339C60.9083 10.8561 61.9008 12.5188 62.5999 14.4107C63.2996 16.3029 63.6487 18.3143 63.6487 20.445C63.6487 22.6123 63.2996 24.651 62.5999 26.5621C61.9008 28.4725 60.9083 30.1441 59.6202 31.5767C58.332 33.0094 56.7698 34.1393 54.9299 34.966C53.0905 35.7927 51.0303 36.206 48.7494 36.206C46.468 36.206 44.4082 35.7927 42.5685 34.966Z" fill="#E83A3E"/>
<path d="M118.555 1.51546C116.034 2.52587 113.855 3.93093 112.015 5.73075C110.176 7.53161 108.741 9.68064 107.711 12.1788C106.681 14.6767 106.166 17.4325 106.166 20.445C106.166 23.4575 106.681 26.2222 107.711 28.7388C108.741 31.2555 110.176 33.423 112.015 35.2413C113.855 37.0602 116.034 38.4748 118.555 39.4846C121.075 40.4948 123.806 41.0001 126.749 41.0001C129.693 41.0001 132.424 40.4948 134.944 39.4846C137.464 38.4748 139.644 37.0602 141.483 35.2413C143.322 33.423 144.758 31.2555 145.788 28.7388C146.817 26.2222 147.333 23.4575 147.333 20.445C147.333 17.4325 146.817 14.6767 145.788 12.1788C144.758 9.68064 143.322 7.53161 141.483 5.73075C139.644 3.93093 137.464 2.52587 134.944 1.51546C132.424 0.505093 129.693 0.00012207 126.749 0.00012207C123.806 0.00012207 121.075 0.505093 118.555 1.51546ZM120.568 34.966C118.73 34.1393 117.166 33.0094 115.878 31.5767C114.591 30.1441 113.597 28.4725 112.898 26.5621C112.199 24.651 111.85 22.6123 111.85 20.445C111.85 18.3143 112.199 16.3029 112.898 14.4107C113.597 12.5188 114.591 10.8561 115.878 9.42339C117.166 7.98971 118.73 6.85176 120.568 6.00614C122.408 5.16189 124.469 4.73895 126.749 4.73895C129.031 4.73895 131.091 5.16189 132.93 6.00614C134.77 6.85176 136.333 7.98971 137.62 9.42339C138.909 10.8561 139.901 12.5188 140.6 14.4107C141.3 16.3029 141.649 18.3143 141.649 20.445C141.649 22.6123 141.3 24.651 140.6 26.5621C139.901 28.4725 138.909 30.1441 137.62 31.5767C136.333 33.0094 134.77 34.1393 132.93 34.966C131.091 35.7927 129.031 36.206 126.749 36.206C124.469 36.206 122.408 35.7927 120.568 34.966Z" fill="#60B5DC"/>
<path d="M195 2.15805V41.0001H207.318C209.282 41.0001 211.097 40.7628 212.769 40.2869C214.44 39.812 215.885 39.0888 217.102 38.1199C218.32 37.1505 219.274 35.9526 219.964 34.5265C220.654 33.1003 221 31.4543 221 29.589C221 27.7232 220.673 26.0961 220.019 24.706C219.364 23.3166 218.438 22.1463 217.239 21.1952C216.039 20.2443 214.613 19.531 212.959 19.0554C211.306 18.5799 209.481 18.3422 207.482 18.3422H200.286V6.87629H216.638V2.15805H195ZM200.286 23.0606H207.046C209.662 23.0606 211.779 23.5909 213.396 24.651C215.012 25.7121 215.822 27.3572 215.822 29.589C215.822 31.7102 215.032 33.3559 213.45 34.5265C211.869 35.697 209.717 36.2821 206.991 36.2821H200.286V23.0606Z" fill="#E83A3E"/>
<path d="M152.895 33.6532C152.076 34.5098 151.666 35.5304 151.666 36.7171C151.666 37.859 152.087 38.858 152.928 39.7142C153.768 40.5719 154.792 40.9994 155.999 40.9994C157.25 40.9994 158.285 40.5605 159.104 39.6822C159.924 38.8031 160.333 37.7925 160.333 36.651C160.333 35.4649 159.924 34.4544 159.104 33.6202C158.285 32.7856 157.25 32.3682 155.999 32.3682C154.749 32.3682 153.714 32.7967 152.895 33.6532Z" fill="#6DC389"/>
<path d="M160.333 2.15815V6.82108H172.839V41.0001H178.16V6.82108H190.666V2.15815H160.333Z" fill="#6DC389"/>
<path d="M20.3059 2.15815L4.82495 20.7034L22.1216 41.0001H28.166L10.4869 20.3777L25.8012 2.15815H20.3059ZM0 2.15815V41.0001H4.82495V20.7034V2.15815H0Z" fill="#60B5DC"/>
<path d="M86.1035 2.15815L69.3325 41.0001H75.2418L88.7485 9.12553L102.311 41.0001H108.333L91.5627 2.15815H86.1035Z" fill="#F7C334"/>
<path d="M40.5546 1.51547C38.0345 2.52587 35.8549 3.93093 34.0152 5.73075C32.1756 7.53161 30.7415 9.68064 29.7113 12.1788C28.681 14.6767 28.166 17.4325 28.166 20.445C28.166 23.4575 28.681 26.2222 29.7113 28.7388C30.7415 31.2555 32.1756 33.423 34.0152 35.2413C35.8549 37.0602 38.0345 38.4748 40.5546 39.4846C43.0749 40.4948 45.8063 41.0001 48.7494 41.0001C51.6923 41.0001 54.4236 40.4948 56.9439 39.4846C59.4638 38.4748 61.6436 37.0602 63.4834 35.2413C65.3221 33.423 66.7579 31.2555 67.7877 28.7388C68.8173 26.2222 69.3324 23.4575 69.3324 20.445C69.3324 17.4325 68.8173 14.6767 67.7877 12.1788C66.7579 9.68064 65.3221 7.53161 63.4834 5.73075C61.6436 3.93093 59.4638 2.52587 56.9439 1.51547C54.4236 0.505093 51.6923 0.00012207 48.7494 0.00012207C45.8063 0.00012207 43.0749 0.505093 40.5546 1.51547ZM42.5685 34.966C40.7295 34.1393 39.1659 33.0094 37.878 31.5767C36.5906 30.1441 35.5972 28.4725 34.8982 26.5621C34.199 24.651 33.8498 22.6123 33.8498 20.445C33.8498 18.3143 34.199 16.3029 34.8982 14.4107C35.5972 12.5188 36.5906 10.8561 37.878 9.42339C39.1659 7.98971 40.7295 6.85175 42.5685 6.00614C44.4082 5.16189 46.468 4.73895 48.7494 4.73895C51.0303 4.73895 53.0905 5.16189 54.9299 6.00614C56.7698 6.85175 58.332 7.98971 59.6202 9.42339C60.9083 10.8561 61.9008 12.5188 62.5999 14.4107C63.2996 16.3029 63.6487 18.3143 63.6487 20.445C63.6487 22.6123 63.2996 24.651 62.5999 26.5621C61.9008 28.4725 60.9083 30.1441 59.6202 31.5767C58.332 33.0094 56.7698 34.1393 54.9299 34.966C53.0905 35.7927 51.0303 36.206 48.7494 36.206C46.468 36.206 44.4082 35.7927 42.5685 34.966Z" fill="#E83A3E"/>
<path d="M118.555 1.51546C116.034 2.52587 113.855 3.93093 112.015 5.73075C110.176 7.53161 108.741 9.68064 107.711 12.1788C106.681 14.6767 106.166 17.4325 106.166 20.445C106.166 23.4575 106.681 26.2222 107.711 28.7388C108.741 31.2555 110.176 33.423 112.015 35.2413C113.855 37.0602 116.034 38.4748 118.555 39.4846C121.075 40.4948 123.806 41.0001 126.749 41.0001C129.693 41.0001 132.424 40.4948 134.944 39.4846C137.464 38.4748 139.644 37.0602 141.483 35.2413C143.322 33.423 144.758 31.2555 145.788 28.7388C146.817 26.2222 147.333 23.4575 147.333 20.445C147.333 17.4325 146.817 14.6767 145.788 12.1788C144.758 9.68064 143.322 7.53161 141.483 5.73075C139.644 3.93093 137.464 2.52587 134.944 1.51546C132.424 0.505093 129.693 0.00012207 126.749 0.00012207C123.806 0.00012207 121.075 0.505093 118.555 1.51546ZM120.568 34.966C118.73 34.1393 117.166 33.0094 115.878 31.5767C114.591 30.1441 113.597 28.4725 112.898 26.5621C112.199 24.651 111.85 22.6123 111.85 20.445C111.85 18.3143 112.199 16.3029 112.898 14.4107C113.597 12.5188 114.591 10.8561 115.878 9.42339C117.166 7.98971 118.73 6.85176 120.568 6.00614C122.408 5.16189 124.469 4.73895 126.749 4.73895C129.031 4.73895 131.091 5.16189 132.93 6.00614C134.77 6.85176 136.333 7.98971 137.62 9.42339C138.909 10.8561 139.901 12.5188 140.6 14.4107C141.3 16.3029 141.649 18.3143 141.649 20.445C141.649 22.6123 141.3 24.651 140.6 26.5621C139.901 28.4725 138.909 30.1441 137.62 31.5767C136.333 33.0094 134.77 34.1393 132.93 34.966C131.091 35.7927 129.031 36.206 126.749 36.206C124.469 36.206 122.408 35.7927 120.568 34.966Z" fill="#60B5DC"/>
<path d="M195 2.15805V41.0001H207.318C209.282 41.0001 211.097 40.7628 212.769 40.2869C214.44 39.812 215.885 39.0888 217.102 38.1199C218.32 37.1505 219.274 35.9526 219.964 34.5265C220.654 33.1003 221 31.4543 221 29.589C221 27.7232 220.673 26.0961 220.019 24.706C219.364 23.3166 218.438 22.1463 217.239 21.1952C216.039 20.2443 214.613 19.531 212.959 19.0554C211.306 18.5799 209.481 18.3422 207.482 18.3422H200.286V6.87629H216.638V2.15805H195ZM200.286 23.0606H207.046C209.662 23.0606 211.779 23.5909 213.396 24.651C215.012 25.7121 215.822 27.3572 215.822 29.589C215.822 31.7102 215.032 33.3559 213.45 34.5265C211.869 35.697 209.717 36.2821 206.991 36.2821H200.286V23.0606Z" fill="#E83A3E"/>
<path d="M152.895 33.6532C152.076 34.5098 151.666 35.5304 151.666 36.7171C151.666 37.859 152.087 38.858 152.928 39.7142C153.768 40.5719 154.792 40.9994 155.999 40.9994C157.25 40.9994 158.285 40.5605 159.104 39.6822C159.924 38.8031 160.333 37.7925 160.333 36.651C160.333 35.4649 159.924 34.4544 159.104 33.6202C158.285 32.7856 157.25 32.3682 155.999 32.3682C154.749 32.3682 153.714 32.7967 152.895 33.6532Z" fill="#6DC389"/>
<path d="M160.333 2.15815V6.82108H172.839V41.0001H178.16V6.82108H190.666V2.15815H160.333Z" fill="#6DC389"/>
<path d="M20.3059 2.15815L4.82495 20.7034L22.1216 41.0001H28.166L10.4869 20.3777L25.8012 2.15815H20.3059ZM0 2.15815V41.0001H4.82495V20.7034V2.15815H0Z" fill="#60B5DC"/>
</svg>
