<svg width="41" height="40" viewBox="0 0 41 40" fill="none" xmlns="http://www.w3.org/2000/svg">
<path d="M24.25 33.75H31.75V26.25H33C33.9946 26.25 34.9484 25.8549 35.6517 25.1517C36.3549 24.4484 36.75 23.4946 36.75 22.5C36.75 21.5054 36.3549 20.5516 35.6517 19.8483C34.9484 19.1451 33.9946 18.75 33 18.75H31.75V10H24.25M24.25 33.75H23M24.25 33.75C24.25 32.4239 23.7232 31.1521 22.7855 30.2145C21.8479 29.2768 20.5761 28.75 19.25 28.75C17.9239 28.75 16.6521 29.2768 15.7145 30.2145C14.7768 31.1521 14.25 32.4239 14.25 33.75M24.25 10H23M24.25 10C24.25 8.67392 23.7232 7.40215 22.7855 6.46447C21.8479 5.52678 20.5761 5 19.25 5C17.9239 5 16.6521 5.52678 15.7145 6.46447C14.7768 7.40215 14.25 8.67392 14.25 10M14.25 33.75H6.75V23.75H10.5C11.4946 23.75 12.4484 23.3549 13.1517 22.6517C13.8549 21.9484 14.25 20.9946 14.25 20C14.25 19.0054 13.8549 18.0516 13.1517 17.3483C12.4484 16.6451 11.4946 16.25 10.5 16.25H6.75V10H14.25M14.25 33.75H15.5M14.25 10H15.5" stroke="#0D1432" stroke-width="3"/>
</svg>
