<svg width="40" height="41" viewBox="0 0 40 41" fill="none" xmlns="http://www.w3.org/2000/svg">
<path d="M18.3333 39.8167V33.8167C9.98331 33.3834 3.33331 26.45 3.33331 18C3.33331 9.26669 10.4333 2.16669 19.1666 2.16669C27.9 2.16669 35 9.26669 35 18C35 26.25 29.2666 34.55 20.7166 38.6667L18.3333 39.8167ZM19.1666 5.50002C12.2666 5.50002 6.66665 11.1 6.66665 18C6.66665 24.9 12.2666 30.5 19.1666 30.5H21.6666V34.3334C27.7333 30.5 31.6666 24.2 31.6666 18C31.6666 11.1 26.0666 5.50002 19.1666 5.50002ZM17.5 24.6667H20.8333V28H17.5V24.6667ZM20.8333 22.1667H17.5C17.5 16.75 22.5 17.1667 22.5 13.8334C22.5 12 21 10.5 19.1666 10.5C17.3333 10.5 15.8333 12 15.8333 13.8334H12.5C12.5 10.15 15.4833 7.16669 19.1666 7.16669C22.85 7.16669 25.8333 10.15 25.8333 13.8334C25.8333 18 20.8333 18.4167 20.8333 22.1667Z" fill="#0D1432"/>
</svg>
